<svg width="374" height="371" viewBox="0 0 374 371" fill="none" xmlns="http://www.w3.org/2000/svg">
<path d="M99.9361 347.857C99.9361 360.639 107.731 371 117.349 371C123.057 371 128.104 367.336 131.28 361.702C134.455 367.336 139.506 371 145.209 371C150.916 371 155.963 367.336 159.14 361.7C162.316 367.336 167.365 371 173.07 371C178.775 371 183.823 367.336 187.001 361.702C190.177 367.336 195.227 371 200.932 371C206.635 371 211.688 367.336 214.865 361.702C218.037 367.336 223.088 371 228.795 371C234.498 371 239.547 367.336 242.724 361.7C245.896 367.336 250.947 371 256.655 371C266.271 371 274.066 360.639 274.066 347.857V339.528V327.924C280.061 329.573 286.414 330.467 292.994 330.467C329.369 330.467 358.861 303.424 358.861 270.068C358.861 262.307 357.245 254.897 354.337 248.081C366.91 225.027 374 199.015 374 171.482C374 76.7751 290.277 0 187.001 0C83.7229 0 0 76.7751 0 171.482C0 199.015 7.08538 225.027 19.6607 248.081C16.7533 254.897 15.1433 262.307 15.1433 270.068C15.1433 303.424 44.6313 330.467 81.008 330.467C87.5884 330.467 93.9371 329.573 99.9361 327.924V339.528V347.857Z" fill="#F3E8DD"/>
<path d="M182.479 279.808C188.72 267.202 184.763 253 184.763 253C184.763 253 170.683 259.239 164.444 271.845C158.198 284.451 157.177 296.451 162.158 298.651C167.142 300.851 176.238 292.414 182.479 279.808Z" fill="#1C1E2A"/>
<path d="M193.523 279.808C187.278 267.202 191.238 253 191.238 253C191.238 253 205.319 259.239 211.558 271.845C217.799 284.451 218.824 296.451 213.843 298.651C208.86 300.851 199.764 292.414 193.523 279.808Z" fill="#1C1E2A"/>
<path d="M99.001 195.203C123.068 195.203 143.157 210.984 147.922 232C148.625 228.901 149 225.689 149 222.398C149 196.775 126.616 176 99.001 176C71.3859 176 49 196.775 49 222.398C49 225.689 49.375 228.901 50.0796 232C54.8453 210.984 74.9338 195.203 99.001 195.203Z" fill="#1C1E2A"/>
<path d="M277.003 195.203C301.067 195.203 321.155 210.984 325.922 232C326.625 228.901 327 225.689 327 222.398C327 196.775 304.615 176 277.003 176C249.385 176 227 196.775 227 222.398C227 225.689 227.377 228.901 228.08 232C232.845 210.984 252.935 195.203 277.003 195.203Z" fill="#1C1E2A"/>
<path d="M64.0036 252.652C60.7987 260.792 57.1201 268.735 53.1139 276.536C52.5444 277.645 54.2668 278.623 54.8403 277.508C58.9224 269.56 62.6649 261.46 65.9299 253.165C66.3894 252 64.4572 251.502 64.0036 252.652Z" fill="#1C1E2A"/>
<path d="M85.8503 252.652C82.3989 260.792 78.4375 268.735 74.1233 276.536C73.5079 277.645 75.3648 278.623 75.9802 277.508C80.3784 269.56 84.4064 261.46 87.9245 253.165C88.4194 252 86.3366 251.502 85.8503 252.652Z" fill="#1C1E2A"/>
<path d="M107.85 252.652C104.398 260.792 100.436 268.735 96.1234 276.536C95.5079 277.645 97.363 278.623 97.9806 277.508C102.377 269.56 106.408 261.46 109.924 253.165C110.419 252 108.338 251.502 107.85 252.652Z" fill="#1C1E2A"/>
<path d="M272.85 252.652C269.397 260.792 265.438 268.735 261.123 276.536C260.508 277.645 262.365 278.623 262.98 277.508C267.378 269.56 271.406 261.46 274.925 253.165C275.419 252 273.337 251.502 272.85 252.652Z" fill="#1C1E2A"/>
<path d="M292.005 252.652C288.8 260.792 285.121 268.735 281.115 276.536C280.543 277.645 282.268 278.623 282.839 277.508C286.924 269.56 290.665 261.46 293.93 253.165C294.389 252 292.459 251.502 292.005 252.652Z" fill="#1C1E2A"/>
<path d="M314.852 252.652C311.4 260.792 307.438 268.735 303.123 276.536C302.508 277.645 304.365 278.623 304.983 277.508C309.381 269.56 313.41 261.46 316.924 253.165C317.421 252 315.34 251.502 314.852 252.652Z" fill="#1C1E2A"/>
</svg>
